<svg width="24" height="23" fill="none" xmlns="http://www.w3.org/2000/svg"><g filter="url(#a)"><path d="M18 3H6c-.825 0-1.492.675-1.492 1.5l-.008 9c0 .825.675 1.5 1.5 1.5h12c.825 0 1.5-.675 1.5-1.5v-9c0-.825-.675-1.5-1.5-1.5Zm-.3 3.188-5.302 3.314a.759.759 0 0 1-.796 0L6.3 6.188a.637.637 0 1 1 .675-1.08L12 8.25l5.025-3.143a.637.637 0 1 1 .675 1.08Z" fill="#212121"/></g><defs><filter id="a" x="-1" y="0" width="26" height="26" filterUnits="userSpaceOnUse" color-interpolation-filters="sRGB"><feFlood flood-opacity="0" result="BackgroundImageFix"/><feColorMatrix in="SourceAlpha" values="0 0 0 0 0 0 0 0 0 0 0 0 0 0 0 0 0 0 127 0" result="hardAlpha"/><feOffset dy="4"/><feGaussianBlur stdDeviation="2"/><feComposite in2="hardAlpha" operator="out"/><feColorMatrix values="0 0 0 0 0 0 0 0 0 0 0 0 0 0 0 0 0 0 0.25 0"/><feBlend in2="BackgroundImageFix" result="effect1_dropShadow_1_2679"/><feBlend in="SourceGraphic" in2="effect1_dropShadow_1_2679" result="shape"/></filter></defs></svg>